<svg xmlns="http://www.w3.org/2000/svg" xmlns:xlink="http://www.w3.org/1999/xlink" width="500" zoomAndPan="magnify" viewBox="0 0 375 374.999991" height="500" preserveAspectRatio="xMidYMid meet" version="1.0"><path fill="#5e17eb" d="M 375 187.5 C 375 190.570312 374.925781 193.636719 374.773438 196.699219 C 374.625 199.765625 374.398438 202.824219 374.097656 205.878906 C 373.796875 208.933594 373.421875 211.976562 372.96875 215.011719 C 372.519531 218.046875 371.996094 221.070312 371.398438 224.078125 C 370.796875 227.089844 370.125 230.082031 369.378906 233.058594 C 368.636719 236.035156 367.816406 238.992188 366.925781 241.929688 C 366.035156 244.863281 365.074219 247.777344 364.039062 250.667969 C 363.003906 253.554688 361.902344 256.417969 360.726562 259.253906 C 359.554688 262.089844 358.308594 264.894531 356.996094 267.667969 C 355.6875 270.441406 354.308594 273.179688 352.859375 275.886719 C 351.414062 278.59375 349.902344 281.261719 348.324219 283.894531 C 346.746094 286.527344 345.105469 289.117188 343.402344 291.667969 C 341.695312 294.222656 339.929688 296.730469 338.101562 299.195312 C 336.273438 301.660156 334.386719 304.078125 332.4375 306.449219 C 330.492188 308.820312 328.488281 311.144531 326.429688 313.417969 C 324.367188 315.691406 322.253906 317.914062 320.082031 320.082031 C 317.914062 322.253906 315.691406 324.367188 313.417969 326.429688 C 311.144531 328.488281 308.820312 330.492188 306.449219 332.4375 C 304.078125 334.386719 301.660156 336.273438 299.195312 338.101562 C 296.730469 339.929688 294.222656 341.695312 291.667969 343.402344 C 289.117188 345.105469 286.527344 346.746094 283.894531 348.324219 C 281.261719 349.902344 278.59375 351.414062 275.886719 352.859375 C 273.179688 354.308594 270.441406 355.6875 267.667969 356.996094 C 264.894531 358.308594 262.089844 359.554688 259.253906 360.726562 C 256.417969 361.902344 253.554688 363.003906 250.667969 364.039062 C 247.777344 365.074219 244.863281 366.035156 241.929688 366.925781 C 238.992188 367.816406 236.035156 368.636719 233.058594 369.378906 C 230.082031 370.125 227.089844 370.796875 224.078125 371.398438 C 221.070312 371.996094 218.046875 372.519531 215.011719 372.96875 C 211.976562 373.421875 208.933594 373.796875 205.878906 374.097656 C 202.824219 374.398438 199.765625 374.625 196.699219 374.773438 C 193.636719 374.925781 190.570312 375 187.5 375 C 184.429688 375 181.363281 374.925781 178.300781 374.773438 C 175.234375 374.625 172.175781 374.398438 169.121094 374.097656 C 166.066406 373.796875 163.023438 373.421875 159.988281 372.96875 C 156.953125 372.519531 153.929688 371.996094 150.921875 371.398438 C 147.910156 370.796875 144.917969 370.125 141.941406 369.378906 C 138.964844 368.636719 136.007812 367.816406 133.070312 366.925781 C 130.136719 366.035156 127.222656 365.074219 124.332031 364.039062 C 121.445312 363.003906 118.582031 361.902344 115.746094 360.726562 C 112.910156 359.554688 110.105469 358.308594 107.332031 356.996094 C 104.558594 355.6875 101.820312 354.308594 99.113281 352.859375 C 96.40625 351.414062 93.738281 349.902344 91.105469 348.324219 C 88.472656 346.746094 85.882812 345.105469 83.332031 343.402344 C 80.777344 341.695312 78.269531 339.929688 75.804688 338.101562 C 73.339844 336.273438 70.921875 334.386719 68.550781 332.4375 C 66.179688 330.492188 63.855469 328.488281 61.582031 326.429688 C 59.308594 324.367188 57.085938 322.253906 54.917969 320.082031 C 52.746094 317.914062 50.632812 315.691406 48.570312 313.417969 C 46.511719 311.144531 44.507812 308.820312 42.558594 306.449219 C 40.613281 304.078125 38.726562 301.660156 36.898438 299.195312 C 35.070312 296.730469 33.304688 294.222656 31.597656 291.667969 C 29.894531 289.117188 28.253906 286.527344 26.675781 283.894531 C 25.097656 281.261719 23.585938 278.59375 22.140625 275.886719 C 20.691406 273.179688 19.3125 270.441406 18.003906 267.667969 C 16.691406 264.894531 15.445312 262.089844 14.273438 259.253906 C 13.097656 256.417969 11.996094 253.554688 10.960938 250.667969 C 9.925781 247.777344 8.964844 244.863281 8.074219 241.929688 C 7.183594 238.992188 6.363281 236.035156 5.621094 233.058594 C 4.875 230.082031 4.203125 227.089844 3.601562 224.078125 C 3.003906 221.070312 2.480469 218.046875 2.03125 215.011719 C 1.578125 211.976562 1.203125 208.933594 0.902344 205.878906 C 0.601562 202.824219 0.375 199.765625 0.226562 196.699219 C 0.0742188 193.636719 0 190.570312 0 187.5 C 0 184.429688 0.0742188 181.363281 0.226562 178.300781 C 0.375 175.234375 0.601562 172.175781 0.902344 169.121094 C 1.203125 166.066406 1.578125 163.023438 2.03125 159.988281 C 2.480469 156.953125 3.003906 153.929688 3.601562 150.921875 C 4.203125 147.910156 4.875 144.917969 5.621094 141.941406 C 6.363281 138.964844 7.183594 136.007812 8.074219 133.070312 C 8.964844 130.136719 9.925781 127.222656 10.960938 124.332031 C 11.996094 121.445312 13.097656 118.582031 14.273438 115.746094 C 15.445312 112.910156 16.691406 110.105469 18.003906 107.332031 C 19.3125 104.558594 20.691406 101.820312 22.140625 99.113281 C 23.585938 96.40625 25.097656 93.738281 26.675781 91.105469 C 28.253906 88.472656 29.894531 85.882812 31.597656 83.332031 C 33.304688 80.777344 35.070312 78.269531 36.898438 75.804688 C 38.726562 73.339844 40.613281 70.921875 42.558594 68.550781 C 44.507812 66.179688 46.511719 63.855469 48.570312 61.582031 C 50.632812 59.308594 52.746094 57.085938 54.917969 54.917969 C 57.085938 52.746094 59.308594 50.632812 61.582031 48.570312 C 63.855469 46.511719 66.179688 44.507812 68.550781 42.558594 C 70.921875 40.613281 73.339844 38.726562 75.804688 36.898438 C 78.269531 35.070312 80.777344 33.304688 83.332031 31.597656 C 85.882812 29.894531 88.472656 28.253906 91.105469 26.675781 C 93.738281 25.097656 96.40625 23.585938 99.113281 22.140625 C 101.820312 20.691406 104.558594 19.3125 107.332031 18.003906 C 110.105469 16.691406 112.910156 15.445312 115.746094 14.273438 C 118.582031 13.097656 121.445312 11.996094 124.332031 10.960938 C 127.222656 9.925781 130.136719 8.964844 133.070312 8.074219 C 136.007812 7.183594 138.964844 6.363281 141.941406 5.617188 C 144.917969 4.875 147.910156 4.203125 150.921875 3.601562 C 153.929688 3.003906 156.953125 2.480469 159.988281 2.03125 C 163.023438 1.578125 166.066406 1.203125 169.121094 0.902344 C 172.175781 0.601562 175.234375 0.375 178.300781 0.226562 C 181.363281 0.0742188 184.429688 0 187.5 0 C 190.570312 0 193.636719 0.0742188 196.699219 0.226562 C 199.765625 0.375 202.824219 0.601562 205.878906 0.902344 C 208.933594 1.203125 211.976562 1.578125 215.011719 2.03125 C 218.046875 2.480469 221.070312 3.003906 224.078125 3.601562 C 227.089844 4.203125 230.082031 4.875 233.058594 5.617188 C 236.035156 6.363281 238.992188 7.183594 241.929688 8.074219 C 244.863281 8.964844 247.777344 9.925781 250.667969 10.960938 C 253.554688 11.996094 256.417969 13.097656 259.253906 14.273438 C 262.089844 15.445312 264.894531 16.691406 267.667969 18.003906 C 270.441406 19.3125 273.179688 20.691406 275.886719 22.140625 C 278.59375 23.585938 281.261719 25.097656 283.894531 26.675781 C 286.527344 28.253906 289.117188 29.894531 291.667969 31.597656 C 294.222656 33.304688 296.730469 35.070312 299.195312 36.898438 C 301.660156 38.726562 304.078125 40.613281 306.449219 42.558594 C 308.820312 44.507812 311.144531 46.511719 313.417969 48.570312 C 315.691406 50.632812 317.914062 52.746094 320.082031 54.917969 C 322.253906 57.085938 324.367188 59.308594 326.429688 61.582031 C 328.488281 63.855469 330.492188 66.179688 332.4375 68.550781 C 334.386719 70.921875 336.273438 73.339844 338.101562 75.804688 C 339.929688 78.269531 341.695312 80.777344 343.402344 83.332031 C 345.105469 85.882812 346.746094 88.472656 348.324219 91.105469 C 349.902344 93.738281 351.414062 96.40625 352.859375 99.113281 C 354.308594 101.820312 355.6875 104.558594 356.996094 107.332031 C 358.308594 110.105469 359.554688 112.910156 360.726562 115.746094 C 361.902344 118.582031 363.003906 121.445312 364.039062 124.332031 C 365.074219 127.222656 366.035156 130.136719 366.925781 133.070312 C 367.816406 136.007812 368.636719 138.964844 369.378906 141.941406 C 370.125 144.917969 370.796875 147.910156 371.398438 150.921875 C 371.996094 153.929688 372.519531 156.953125 372.96875 159.988281 C 373.421875 163.023438 373.796875 166.066406 374.097656 169.121094 C 374.398438 172.175781 374.625 175.234375 374.773438 178.300781 C 374.925781 181.363281 375 184.429688 375 187.5 Z M 375 187.5 " fill-opacity="1" fill-rule="nonzero"/><path fill="#fefefe" d="M 199.9375 300.371094 L 174.929688 300.371094 C 167.917969 300.371094 162.226562 294.546875 162.226562 287.535156 L 162.226562 266.363281 C 157.859375 264.910156 153.625 263.1875 149.523438 261.070312 L 134.570312 276.15625 C 132.191406 278.539062 129.015625 279.859375 125.574219 279.859375 C 122.132812 279.859375 118.957031 278.539062 116.441406 276.15625 L 98.84375 258.425781 C 93.816406 253.394531 93.816406 245.324219 98.84375 240.296875 L 113.796875 225.34375 C 111.679688 221.375 109.960938 217.140625 108.503906 212.773438 L 87.332031 212.773438 C 80.320312 212.773438 74.628906 206.953125 74.628906 199.9375 L 74.628906 174.929688 C 74.628906 167.917969 80.320312 162.226562 87.332031 162.226562 L 108.503906 162.226562 C 109.960938 157.859375 111.679688 153.625 113.796875 149.523438 L 98.84375 134.570312 C 96.460938 132.191406 95.140625 129.015625 95.140625 125.574219 C 95.140625 122.132812 96.460938 118.957031 98.84375 116.441406 L 116.441406 98.84375 C 118.957031 96.460938 122.132812 95.140625 125.574219 95.140625 C 129.015625 95.140625 132.191406 96.460938 134.570312 98.84375 L 149.523438 113.796875 C 153.625 111.679688 157.859375 109.960938 162.226562 108.503906 L 162.226562 87.332031 C 162.226562 80.320312 167.917969 74.628906 174.929688 74.628906 L 199.9375 74.628906 C 206.953125 74.628906 212.773438 80.320312 212.773438 87.332031 L 212.773438 108.503906 C 217.007812 109.960938 221.242188 111.679688 225.34375 113.796875 L 240.296875 98.84375 C 242.808594 96.460938 245.984375 95.140625 249.425781 95.140625 C 252.867188 95.140625 256.042969 96.460938 258.425781 98.84375 L 276.15625 116.441406 C 278.539062 118.957031 279.859375 122.132812 279.859375 125.574219 C 279.859375 129.015625 278.539062 132.191406 276.15625 134.570312 L 261.070312 149.523438 C 263.1875 153.625 264.910156 157.859375 266.363281 162.226562 L 287.535156 162.226562 C 294.546875 162.226562 300.371094 167.917969 300.371094 174.929688 L 300.371094 199.9375 C 300.371094 206.953125 294.546875 212.773438 287.535156 212.773438 L 266.363281 212.773438 C 264.910156 217.007812 263.1875 221.242188 261.070312 225.34375 L 276.15625 240.296875 C 278.539062 242.808594 279.859375 245.984375 279.859375 249.425781 C 279.859375 252.867188 278.539062 256.042969 276.15625 258.425781 L 258.425781 276.15625 C 256.042969 278.539062 252.867188 279.859375 249.425781 279.859375 C 245.984375 279.859375 242.808594 278.539062 240.296875 276.15625 L 225.34375 261.070312 C 221.375 263.1875 217.140625 264.910156 212.773438 266.363281 L 212.773438 287.535156 C 212.773438 294.546875 206.953125 300.371094 199.9375 300.371094 Z M 138.9375 237.519531 C 137.480469 237.519531 136.292969 236.328125 136.292969 234.871094 L 136.292969 176.386719 C 130.601562 175.195312 126.367188 170.035156 126.367188 164.078125 C 126.367188 157.992188 130.601562 152.964844 136.292969 151.773438 L 136.292969 139.996094 C 136.292969 138.539062 137.480469 137.351562 138.9375 137.351562 C 140.394531 137.351562 141.453125 138.539062 141.453125 139.996094 L 141.453125 151.773438 C 147.140625 152.964844 151.507812 157.992188 151.507812 164.078125 C 151.507812 170.035156 147.140625 175.195312 141.453125 176.386719 L 141.453125 234.871094 C 141.453125 236.328125 140.394531 237.519531 138.9375 237.519531 Z M 233.414062 224.417969 C 227.726562 223.226562 223.492188 218.199219 223.492188 212.246094 C 223.492188 206.15625 227.726562 201.128906 233.414062 199.9375 L 233.414062 139.996094 C 233.414062 138.539062 234.605469 137.351562 236.0625 137.351562 C 237.386719 137.351562 238.578125 138.539062 238.578125 139.996094 L 238.578125 199.9375 C 244.265625 201.128906 248.5 206.15625 248.5 212.246094 C 248.5 218.199219 244.265625 223.226562 238.578125 224.417969 L 238.578125 234.871094 C 238.578125 236.328125 237.386719 237.519531 236.0625 237.519531 C 234.605469 237.519531 233.414062 236.328125 233.414062 234.871094 Z M 236.0625 204.835938 C 231.960938 204.835938 228.652344 208.140625 228.652344 212.246094 C 228.652344 216.214844 231.960938 219.523438 236.0625 219.523438 C 240.03125 219.523438 243.339844 216.214844 243.339844 212.246094 C 243.339844 208.140625 240.03125 204.835938 236.0625 204.835938 Z M 200.996094 180.089844 C 195.308594 178.898438 191.074219 173.871094 191.074219 167.785156 C 191.074219 161.695312 195.308594 156.667969 200.996094 155.476562 L 200.996094 139.996094 C 200.996094 138.539062 202.1875 137.351562 203.644531 137.351562 C 205.097656 137.351562 206.15625 138.539062 206.15625 139.996094 L 206.15625 155.476562 C 211.847656 156.667969 216.214844 161.695312 216.214844 167.785156 C 216.214844 173.871094 211.847656 178.898438 206.15625 180.089844 L 206.15625 234.871094 C 206.15625 236.328125 205.097656 237.519531 203.644531 237.519531 C 202.1875 237.519531 200.996094 236.328125 200.996094 234.871094 Z M 203.644531 160.375 C 199.542969 160.375 196.234375 163.683594 196.234375 167.785156 C 196.234375 171.886719 199.542969 175.195312 203.644531 175.195312 C 207.746094 175.195312 211.054688 171.886719 211.054688 167.785156 C 211.054688 163.683594 207.746094 160.375 203.644531 160.375 Z M 168.710938 214.230469 C 163.019531 213.039062 158.785156 208.011719 158.785156 201.921875 C 158.785156 195.96875 163.019531 190.808594 168.710938 189.617188 L 168.710938 139.996094 C 168.710938 138.539062 169.902344 137.351562 171.222656 137.351562 C 172.679688 137.351562 173.871094 138.539062 173.871094 139.996094 L 173.871094 189.617188 C 179.5625 190.808594 183.796875 195.96875 183.796875 201.921875 C 183.796875 208.011719 179.5625 213.039062 173.871094 214.230469 L 173.871094 234.871094 C 173.871094 236.328125 172.679688 237.519531 171.222656 237.519531 C 169.902344 237.519531 168.710938 236.328125 168.710938 234.871094 Z M 171.222656 194.511719 C 167.253906 194.511719 163.945312 197.820312 163.945312 201.921875 C 163.945312 206.023438 167.253906 209.332031 171.222656 209.332031 C 175.328125 209.332031 178.632812 206.023438 178.632812 201.921875 C 178.632812 197.820312 175.328125 194.511719 171.222656 194.511719 Z M 138.9375 156.667969 C 134.835938 156.667969 131.527344 159.976562 131.527344 164.078125 C 131.527344 168.179688 134.835938 171.488281 138.9375 171.488281 C 143.039062 171.488281 146.347656 168.179688 146.347656 164.078125 C 146.347656 159.976562 143.039062 156.667969 138.9375 156.667969 Z M 138.9375 156.667969 " fill-opacity="1" fill-rule="evenodd"/></svg>