<svg xmlns="http://www.w3.org/2000/svg" xmlns:xlink="http://www.w3.org/1999/xlink" width="500" zoomAndPan="magnify" viewBox="0 0 375 374.999991" height="500" preserveAspectRatio="xMidYMid meet" version="1.0"><path fill="#e6e7e8" d="M 100.980469 38.765625 C 155.3125 -0.0742188 230.871094 12.449219 269.742188 66.730469 C 308.617188 121.011719 296.082031 196.5 241.753906 235.339844 C 187.417969 274.175781 111.863281 261.65625 72.988281 207.375 C 34.113281 153.089844 46.648438 77.601562 100.980469 38.765625 Z M 113.210938 55.847656 C 158.101562 23.761719 220.527344 34.105469 252.644531 78.953125 C 284.761719 123.800781 274.40625 186.167969 229.519531 218.253906 C 184.628906 250.34375 122.203125 240 90.085938 195.148438 C 57.96875 150.300781 68.324219 87.933594 113.210938 55.847656 Z M 113.210938 55.847656 " fill-opacity="1" fill-rule="evenodd"/><path fill="#e6e7e8" d="M 206.484375 235.847656 L 249.507812 207.382812 C 249.875 207.144531 250.273438 206.988281 250.710938 206.917969 C 251.148438 206.847656 251.589844 206.867188 252.03125 206.976562 C 252.476562 207.089844 252.890625 207.28125 253.273438 207.554688 C 253.65625 207.832031 253.976562 208.167969 254.242188 208.566406 L 335.199219 330.894531 C 335.460938 331.289062 335.644531 331.71875 335.746094 332.179688 C 335.851562 332.636719 335.867188 333.09375 335.796875 333.546875 C 335.722656 333.996094 335.570312 334.410156 335.335938 334.785156 C 335.097656 335.160156 334.796875 335.46875 334.433594 335.707031 L 291.410156 364.171875 C 291.042969 364.410156 290.644531 364.566406 290.207031 364.636719 C 289.769531 364.707031 289.328125 364.6875 288.886719 364.578125 C 288.441406 364.46875 288.027344 364.273438 287.644531 364 C 287.261719 363.722656 286.941406 363.386719 286.675781 362.992188 L 205.71875 240.664062 C 205.457031 240.265625 205.273438 239.835938 205.171875 239.378906 C 205.066406 238.917969 205.050781 238.460938 205.121094 238.011719 C 205.195312 237.558594 205.347656 237.144531 205.582031 236.769531 C 205.820312 236.394531 206.121094 236.085938 206.484375 235.847656 Z M 206.484375 235.847656 " fill-opacity="1" fill-rule="evenodd"/><path fill="#e6e7e8" d="M 86.121094 108.773438 C 105.386719 80.960938 142.476562 51.410156 176.410156 47.941406 C 128.785156 38.269531 89.859375 80.683594 86.121094 108.773438 Z M 86.121094 108.773438 " fill-opacity="1" fill-rule="evenodd"/></svg>